<mxfile host="app.diagrams.net" agent="Mozilla/5.0 (X11; Linux x86_64) AppleWebKit/537.36 (KHTML, like Gecko) Chrome/131.0.0.0 Safari/537.36" version="24.9.0">
  <diagram id="6a731a19-8d31-9384-78a2-239565b7b9f0" name="Page-1">
    <mxGraphModel dx="6111" dy="2560" grid="1" gridSize="10" guides="1" tooltips="1" connect="1" arrows="1" fold="1" page="1" pageScale="1" pageWidth="1169" pageHeight="827" background="none" math="0" shadow="0">
      <root>
        <mxCell id="0" />
        <mxCell id="1" parent="0" />
        <mxCell id="-hZSJfEYsWuoOAUDj7_P-1790" style="edgeStyle=none;curved=1;rounded=0;orthogonalLoop=1;jettySize=auto;html=1;entryX=0.998;entryY=0.587;entryDx=0;entryDy=0;entryPerimeter=0;fontSize=12;startSize=8;endSize=8;fillColor=#fa6800;strokeColor=#C73500;strokeWidth=3;" edge="1" parent="1" source="1753" target="-hZSJfEYsWuoOAUDj7_P-1787">
          <mxGeometry relative="1" as="geometry" />
        </mxCell>
        <mxCell id="-hZSJfEYsWuoOAUDj7_P-1781" value="" style="edgeStyle=none;rounded=1;jumpStyle=none;html=1;shadow=0;labelBackgroundColor=none;startArrow=none;startFill=0;jettySize=auto;orthogonalLoop=1;strokeColor=#E85642;strokeWidth=3;fontFamily=Helvetica;fontSize=14;fontColor=#FFFFFF;spacing=5;fontStyle=1;fillColor=#b0e3e6;entryX=1;entryY=0.5;entryDx=0;entryDy=0;" edge="1" parent="1">
          <mxGeometry relative="1" as="geometry">
            <mxPoint x="215" y="395.13" as="sourcePoint" />
            <mxPoint x="-696" y="140.00499999999954" as="targetPoint" />
          </mxGeometry>
        </mxCell>
        <mxCell id="1745" value="" style="edgeStyle=none;rounded=0;jumpStyle=none;html=1;shadow=0;labelBackgroundColor=none;startArrow=none;startFill=0;endArrow=classic;endFill=1;jettySize=auto;orthogonalLoop=1;strokeColor=#2F5B7C;strokeWidth=3;fontFamily=Helvetica;fontSize=16;fontColor=#23445D;spacing=5;" parent="1" source="1749" target="1764" edge="1">
          <mxGeometry relative="1" as="geometry" />
        </mxCell>
        <mxCell id="1746" value="" style="edgeStyle=none;rounded=0;jumpStyle=none;html=1;shadow=0;labelBackgroundColor=none;startArrow=none;startFill=0;endArrow=classic;endFill=1;jettySize=auto;orthogonalLoop=1;strokeColor=#2F5B7C;strokeWidth=3;fontFamily=Helvetica;fontSize=16;fontColor=#23445D;spacing=5;" parent="1" source="1749" target="1771" edge="1">
          <mxGeometry relative="1" as="geometry" />
        </mxCell>
        <mxCell id="1747" value="" style="edgeStyle=none;rounded=0;jumpStyle=none;html=1;shadow=0;labelBackgroundColor=none;startArrow=none;startFill=0;endArrow=classic;endFill=1;jettySize=auto;orthogonalLoop=1;strokeColor=#2F5B7C;strokeWidth=3;fontFamily=Helvetica;fontSize=16;fontColor=#23445D;spacing=5;" parent="1" source="1749" target="1760" edge="1">
          <mxGeometry relative="1" as="geometry" />
        </mxCell>
        <mxCell id="1748" value="" style="edgeStyle=none;rounded=0;jumpStyle=none;html=1;shadow=0;labelBackgroundColor=none;startArrow=none;startFill=0;endArrow=classic;endFill=1;jettySize=auto;orthogonalLoop=1;strokeColor=#2F5B7C;strokeWidth=3;fontFamily=Helvetica;fontSize=16;fontColor=#23445D;spacing=5;" parent="1" source="1749" target="1753" edge="1">
          <mxGeometry relative="1" as="geometry" />
        </mxCell>
        <mxCell id="1749" value="AWS Solutions Architect" style="rounded=1;whiteSpace=wrap;html=1;shadow=0;labelBackgroundColor=none;strokeColor=none;strokeWidth=3;fillColor=#2F5B7C;fontFamily=Helvetica;fontSize=16;fontColor=#FFFFFF;align=center;fontStyle=1;spacing=5;arcSize=7;perimeterSpacing=2;" parent="1" vertex="1">
          <mxGeometry x="495" y="380.5" width="150" height="70" as="geometry" />
        </mxCell>
        <mxCell id="1750" value="" style="edgeStyle=none;rounded=1;jumpStyle=none;html=1;shadow=0;labelBackgroundColor=none;startArrow=none;startFill=0;jettySize=auto;orthogonalLoop=1;strokeColor=#E85642;strokeWidth=3;fontFamily=Helvetica;fontSize=14;fontColor=#FFFFFF;spacing=5;fontStyle=1;fillColor=#b0e3e6;" parent="1" source="1753" target="1756" edge="1">
          <mxGeometry relative="1" as="geometry" />
        </mxCell>
        <mxCell id="1751" value="" style="edgeStyle=none;rounded=1;jumpStyle=none;html=1;shadow=0;labelBackgroundColor=none;startArrow=none;startFill=0;jettySize=auto;orthogonalLoop=1;strokeColor=#E85642;strokeWidth=3;fontFamily=Helvetica;fontSize=14;fontColor=#FFFFFF;spacing=5;fontStyle=1;fillColor=#b0e3e6;" parent="1" source="1753" target="1755" edge="1">
          <mxGeometry relative="1" as="geometry" />
        </mxCell>
        <mxCell id="1752" value="" style="edgeStyle=none;rounded=1;jumpStyle=none;html=1;shadow=0;labelBackgroundColor=none;startArrow=none;startFill=0;jettySize=auto;orthogonalLoop=1;strokeColor=#E85642;strokeWidth=3;fontFamily=Helvetica;fontSize=14;fontColor=#FFFFFF;spacing=5;fontStyle=1;fillColor=#b0e3e6;" parent="1" source="1753" target="1754" edge="1">
          <mxGeometry relative="1" as="geometry" />
        </mxCell>
        <mxCell id="-hZSJfEYsWuoOAUDj7_P-1788" style="edgeStyle=none;curved=1;rounded=0;orthogonalLoop=1;jettySize=auto;html=1;entryX=1;entryY=0.5;entryDx=0;entryDy=0;fontSize=12;startSize=8;endSize=8;fillColor=#fa6800;strokeColor=#C73500;strokeWidth=4;" edge="1" parent="1" source="1753" target="-hZSJfEYsWuoOAUDj7_P-1784">
          <mxGeometry relative="1" as="geometry" />
        </mxCell>
        <mxCell id="1753" value="Excelência Operacional&lt;br&gt;&lt;strong&gt;Descrição:&lt;/strong&gt; A capacidade de executar e monitorar sistemas para fornecer valor de negócios e melhorar continuamente os processos e procedimentos de suporte. Envolve automação, resposta a eventos e gerenciamento de mudanças." style="rounded=1;whiteSpace=wrap;html=1;shadow=0;labelBackgroundColor=none;strokeColor=none;strokeWidth=3;fillColor=#e85642;fontFamily=Helvetica;fontSize=14;fontColor=#FFFFFF;align=center;spacing=5;fontStyle=1;arcSize=7;perimeterSpacing=2;" parent="1" vertex="1">
          <mxGeometry x="215" y="280.5" width="175" height="270" as="geometry" />
        </mxCell>
        <mxCell id="1754" value="&lt;p data-sourcepos=&quot;25:5-25:19&quot;&gt;&lt;strong&gt;CloudWatch:&lt;/strong&gt;&lt;/p&gt;&lt;ul data-sourcepos=&quot;26:5-30:0&quot;&gt;&lt;li data-sourcepos=&quot;26:5-26:85&quot;&gt;&lt;strong&gt;Resumo:&lt;/strong&gt; Monitoramento e observabilidade. Coleta métricas, logs e eventos.&lt;/li&gt;&lt;br&gt;&lt;li data-sourcepos=&quot;27:5-27:112&quot;&gt;&lt;strong&gt;Casos de Uso:&lt;/strong&gt; Monitorar integridade de aplicações, detectar anomalias, criar alarmes, analisar logs.&lt;/li&gt;&lt;br&gt;&lt;li data-sourcepos=&quot;28:5-28:160&quot;&gt;&lt;strong&gt;Boas Práticas:&lt;/strong&gt; Usar métricas customizadas, configurar alarmes, usar dashboards, usar CloudWatch Logs Insights e ServiceLens, usar Anomaly Detection.&lt;/li&gt;&lt;br&gt;&lt;li data-sourcepos=&quot;29:5-30:0&quot;&gt;&lt;strong&gt;Custos:&lt;/strong&gt; Varia conforme uso. Métricas: US$ 0,30/métrica/mês; Alarmes: US$ 0,10/alarme/mês; Logs: US$ 0,50/GB ingerido, US$ 0,03/GB armazenado/mês, US$ 0,005/GB analisado pelo Logs Insights.&lt;/li&gt;&lt;/ul&gt;" style="rounded=1;whiteSpace=wrap;html=1;shadow=0;labelBackgroundColor=none;strokeColor=none;strokeWidth=3;fillColor=#f08e81;fontFamily=Helvetica;fontSize=14;fontColor=#FFFFFF;align=center;spacing=5;fontStyle=0;arcSize=7;perimeterSpacing=2;" parent="1" vertex="1">
          <mxGeometry x="-1230" y="-380" width="530" height="310" as="geometry" />
        </mxCell>
        <mxCell id="1755" value="&lt;p data-sourcepos=&quot;19:5-19:19&quot;&gt;&lt;strong&gt;CloudTrail:&lt;/strong&gt;&lt;/p&gt;&lt;ul data-sourcepos=&quot;20:5-24:0&quot;&gt;&lt;li data-sourcepos=&quot;20:5-20:86&quot;&gt;&lt;strong&gt;Resumo:&lt;/strong&gt; Auditoria de chamadas de API. Registra as atividades na conta AWS.&lt;/li&gt;&lt;br&gt;&lt;li data-sourcepos=&quot;21:5-21:116&quot;&gt;&lt;strong&gt;Casos de Uso:&lt;/strong&gt; Monitorar atividade do usuário, rastrear alterações em recursos, auxiliar na conformidade.&lt;/li&gt;&lt;br&gt;&lt;li data-sourcepos=&quot;22:5-22:196&quot;&gt;&lt;strong&gt;Boas Práticas:&lt;/strong&gt; Habilitar em todas as regiões, armazenar logs em bucket S3 separado, integrar com CloudWatch Logs, usar trilhas Multi-region e Data Events (com cautela devido ao custo).&lt;/li&gt;&lt;br&gt;&lt;li data-sourcepos=&quot;23:5-24:0&quot;&gt;&lt;strong&gt;Custos:&lt;/strong&gt; Primeiro registro de eventos de gerenciamento é gratuito por região. Eventos de dados: US$ 0,10/100.000 eventos; Insights Events: US$ 0,35/100.000 eventos.&lt;/li&gt;&lt;/ul&gt;" style="rounded=1;whiteSpace=wrap;html=1;shadow=0;labelBackgroundColor=none;strokeColor=none;strokeWidth=3;fillColor=#f08e81;fontFamily=Helvetica;fontSize=14;fontColor=#FFFFFF;align=center;spacing=5;fontStyle=0;arcSize=7;perimeterSpacing=2;" parent="1" vertex="1">
          <mxGeometry x="-610" y="-10" width="580" height="277.75" as="geometry" />
        </mxCell>
        <mxCell id="1756" value="&lt;p data-sourcepos=&quot;13:5-13:23&quot;&gt;&lt;strong&gt;CloudFormation:&lt;/strong&gt;&lt;/p&gt;&lt;ul data-sourcepos=&quot;14:5-18:0&quot;&gt;&lt;li data-sourcepos=&quot;14:5-14:121&quot;&gt;&lt;strong&gt;Resumo:&lt;/strong&gt; Infraestrutura como código. Permite criar e gerenciar recursos da AWS através de templates (modelos).&lt;/li&gt;&lt;br&gt;&lt;li data-sourcepos=&quot;15:5-15:129&quot;&gt;&lt;strong&gt;Casos de Uso:&lt;/strong&gt; Automatizar implantação de infraestrutura, criar ambientes de teste/produção, recuperação de desastres.&lt;/li&gt;&lt;br&gt;&lt;li data-sourcepos=&quot;16:5-16:132&quot;&gt;&lt;strong&gt;Boas Práticas:&lt;/strong&gt; Usar controle de versão para templates, validar templates, usar parâmetros, Change Sets e Stack Policies.&lt;/li&gt;&lt;br&gt;&lt;li data-sourcepos=&quot;17:5-18:0&quot;&gt;&lt;strong&gt;Custos:&lt;/strong&gt; Sem custo adicional (paga pelos recursos criados). &lt;strong&gt;Atenção:&lt;/strong&gt; A exclusão da stack não garante a exclusão de todos os recursos.&lt;/li&gt;&lt;/ul&gt;" style="rounded=1;whiteSpace=wrap;html=1;shadow=0;labelBackgroundColor=none;strokeColor=none;strokeWidth=3;fillColor=#f08e81;fontFamily=Helvetica;fontSize=14;fontColor=#FFFFFF;align=center;spacing=5;fontStyle=0;arcSize=7;perimeterSpacing=2;" parent="1" vertex="1">
          <mxGeometry x="-570" y="-350" width="510" height="295.5" as="geometry" />
        </mxCell>
        <mxCell id="1757" value="" style="edgeStyle=none;rounded=0;jumpStyle=none;html=1;shadow=0;labelBackgroundColor=none;startArrow=none;startFill=0;endArrow=classic;endFill=1;jettySize=auto;orthogonalLoop=1;strokeColor=#1699D3;strokeWidth=3;fontFamily=Helvetica;fontSize=14;fontColor=#FFFFFF;spacing=5;" parent="1" source="1760" target="1763" edge="1">
          <mxGeometry relative="1" as="geometry" />
        </mxCell>
        <mxCell id="1758" value="" style="edgeStyle=none;rounded=0;jumpStyle=none;html=1;shadow=0;labelBackgroundColor=none;startArrow=none;startFill=0;endArrow=classic;endFill=1;jettySize=auto;orthogonalLoop=1;strokeColor=#1699D3;strokeWidth=3;fontFamily=Helvetica;fontSize=14;fontColor=#FFFFFF;spacing=5;" parent="1" source="1760" target="1762" edge="1">
          <mxGeometry relative="1" as="geometry" />
        </mxCell>
        <mxCell id="1759" value="" style="edgeStyle=none;rounded=0;jumpStyle=none;html=1;shadow=0;labelBackgroundColor=none;startArrow=none;startFill=0;endArrow=classic;endFill=1;jettySize=auto;orthogonalLoop=1;strokeColor=#1699D3;strokeWidth=3;fontFamily=Helvetica;fontSize=14;fontColor=#FFFFFF;spacing=5;" parent="1" source="1760" target="1761" edge="1">
          <mxGeometry relative="1" as="geometry" />
        </mxCell>
        <mxCell id="1760" value="Organization" style="rounded=1;whiteSpace=wrap;html=1;shadow=0;labelBackgroundColor=none;strokeColor=none;strokeWidth=3;fillColor=#1699d3;fontFamily=Helvetica;fontSize=14;fontColor=#FFFFFF;align=center;spacing=5;fontStyle=1;arcSize=7;perimeterSpacing=2;" parent="1" vertex="1">
          <mxGeometry x="495" y="570.5" width="150" height="60" as="geometry" />
        </mxCell>
        <mxCell id="1761" value="Content" style="rounded=1;whiteSpace=wrap;html=1;shadow=0;labelBackgroundColor=none;strokeColor=none;strokeWidth=3;fillColor=#64bbe2;fontFamily=Helvetica;fontSize=14;fontColor=#FFFFFF;align=center;spacing=5;arcSize=7;perimeterSpacing=2;" parent="1" vertex="1">
          <mxGeometry x="695" y="650.5" width="150" height="60" as="geometry" />
        </mxCell>
        <mxCell id="1762" value="Budget" style="rounded=1;whiteSpace=wrap;html=1;shadow=0;labelBackgroundColor=none;strokeColor=none;strokeWidth=3;fillColor=#64bbe2;fontFamily=Helvetica;fontSize=14;fontColor=#FFFFFF;align=center;spacing=5;arcSize=7;perimeterSpacing=2;" parent="1" vertex="1">
          <mxGeometry x="495" y="716.5" width="150" height="60" as="geometry" />
        </mxCell>
        <mxCell id="1763" value="Analysis" style="rounded=1;whiteSpace=wrap;html=1;shadow=0;labelBackgroundColor=none;strokeColor=none;strokeWidth=3;fillColor=#64bbe2;fontFamily=Helvetica;fontSize=14;fontColor=#FFFFFF;align=center;spacing=5;arcSize=7;perimeterSpacing=2;" parent="1" vertex="1">
          <mxGeometry x="295" y="650.5" width="150" height="60" as="geometry" />
        </mxCell>
        <mxCell id="1764" value="Marketing" style="rounded=1;whiteSpace=wrap;html=1;shadow=0;labelBackgroundColor=none;strokeColor=none;strokeWidth=3;fillColor=#F08705;fontFamily=Helvetica;fontSize=14;fontColor=#FFFFFF;align=center;spacing=5;fontStyle=1;arcSize=7;perimeterSpacing=2;" parent="1" vertex="1">
          <mxGeometry x="495" y="200.5" width="150" height="60" as="geometry" />
        </mxCell>
        <mxCell id="1765" value="Aims&lt;br&gt;" style="rounded=1;whiteSpace=wrap;html=1;shadow=0;labelBackgroundColor=none;strokeColor=none;strokeWidth=3;fillColor=#f5af58;fontFamily=Helvetica;fontSize=14;fontColor=#FFFFFF;align=center;spacing=5;arcSize=7;perimeterSpacing=2;" parent="1" vertex="1">
          <mxGeometry x="695" y="110.5" width="150" height="60" as="geometry" />
        </mxCell>
        <mxCell id="1766" value="" style="edgeStyle=none;rounded=0;jumpStyle=none;html=1;shadow=0;labelBackgroundColor=none;startArrow=none;startFill=0;endArrow=classic;endFill=1;jettySize=auto;orthogonalLoop=1;strokeColor=#F08705;strokeWidth=3;fontFamily=Helvetica;fontSize=14;fontColor=#FFFFFF;spacing=5;" parent="1" source="1764" target="1765" edge="1">
          <mxGeometry relative="1" as="geometry" />
        </mxCell>
        <mxCell id="1767" value="Instruments" style="rounded=1;whiteSpace=wrap;html=1;shadow=0;labelBackgroundColor=none;strokeColor=none;strokeWidth=3;fillColor=#f5af58;fontFamily=Helvetica;fontSize=14;fontColor=#FFFFFF;align=center;spacing=5;arcSize=7;perimeterSpacing=2;" parent="1" vertex="1">
          <mxGeometry x="495" y="50.5" width="150" height="60" as="geometry" />
        </mxCell>
        <mxCell id="1768" value="" style="edgeStyle=none;rounded=0;jumpStyle=none;html=1;shadow=0;labelBackgroundColor=none;startArrow=none;startFill=0;endArrow=classic;endFill=1;jettySize=auto;orthogonalLoop=1;strokeColor=#F08705;strokeWidth=3;fontFamily=Helvetica;fontSize=14;fontColor=#FFFFFF;spacing=5;" parent="1" source="1764" target="1767" edge="1">
          <mxGeometry relative="1" as="geometry" />
        </mxCell>
        <mxCell id="1769" value="Segmentation" style="rounded=1;whiteSpace=wrap;html=1;shadow=0;labelBackgroundColor=none;strokeColor=none;strokeWidth=3;fillColor=#f5af58;fontFamily=Helvetica;fontSize=14;fontColor=#FFFFFF;align=center;spacing=5;arcSize=7;perimeterSpacing=2;" parent="1" vertex="1">
          <mxGeometry x="295" y="110.5" width="150" height="60" as="geometry" />
        </mxCell>
        <mxCell id="1770" value="" style="edgeStyle=none;rounded=0;jumpStyle=none;html=1;shadow=0;labelBackgroundColor=none;startArrow=none;startFill=0;endArrow=classic;endFill=1;jettySize=auto;orthogonalLoop=1;strokeColor=#F08705;strokeWidth=3;fontFamily=Helvetica;fontSize=14;fontColor=#FFFFFF;spacing=5;" parent="1" source="1764" target="1769" edge="1">
          <mxGeometry relative="1" as="geometry" />
        </mxCell>
        <mxCell id="1771" value="Communication" style="rounded=1;whiteSpace=wrap;html=1;shadow=0;labelBackgroundColor=none;strokeColor=none;strokeWidth=3;fillColor=#12aab5;fontFamily=Helvetica;fontSize=14;fontColor=#FFFFFF;align=center;spacing=5;fontStyle=1;arcSize=7;perimeterSpacing=2;" parent="1" vertex="1">
          <mxGeometry x="795" y="385.4999999999999" width="150" height="60" as="geometry" />
        </mxCell>
        <mxCell id="1772" value="Events" style="rounded=1;whiteSpace=wrap;html=1;shadow=0;labelBackgroundColor=none;strokeColor=none;strokeWidth=3;fillColor=#61c6ce;fontFamily=Helvetica;fontSize=14;fontColor=#FFFFFF;align=center;spacing=5;fontStyle=0;arcSize=7;perimeterSpacing=2;" parent="1" vertex="1">
          <mxGeometry x="875" y="524.5" width="150" height="60" as="geometry" />
        </mxCell>
        <mxCell id="1773" value="" style="edgeStyle=none;rounded=1;jumpStyle=none;html=1;shadow=0;labelBackgroundColor=none;startArrow=none;startFill=0;jettySize=auto;orthogonalLoop=1;strokeColor=#12AAB5;strokeWidth=3;fontFamily=Helvetica;fontSize=14;fontColor=#FFFFFF;spacing=5;fontStyle=1;fillColor=#b0e3e6;" parent="1" source="1771" target="1772" edge="1">
          <mxGeometry relative="1" as="geometry" />
        </mxCell>
        <mxCell id="1774" value="Media" style="rounded=1;whiteSpace=wrap;html=1;shadow=0;labelBackgroundColor=none;strokeColor=none;strokeWidth=3;fillColor=#61c6ce;fontFamily=Helvetica;fontSize=14;fontColor=#FFFFFF;align=center;spacing=5;fontStyle=0;arcSize=7;perimeterSpacing=2;" parent="1" vertex="1">
          <mxGeometry x="1005" y="434.5" width="150" height="60" as="geometry" />
        </mxCell>
        <mxCell id="1775" value="" style="edgeStyle=none;rounded=1;jumpStyle=none;html=1;shadow=0;labelBackgroundColor=none;startArrow=none;startFill=0;jettySize=auto;orthogonalLoop=1;strokeColor=#12AAB5;strokeWidth=3;fontFamily=Helvetica;fontSize=14;fontColor=#FFFFFF;spacing=5;fontStyle=1;fillColor=#b0e3e6;" parent="1" source="1771" target="1774" edge="1">
          <mxGeometry relative="1" as="geometry" />
        </mxCell>
        <mxCell id="1776" value="Sponsoring" style="rounded=1;whiteSpace=wrap;html=1;shadow=0;labelBackgroundColor=none;strokeColor=none;strokeWidth=3;fillColor=#61c6ce;fontFamily=Helvetica;fontSize=14;fontColor=#FFFFFF;align=center;spacing=5;fontStyle=0;arcSize=7;perimeterSpacing=2;" parent="1" vertex="1">
          <mxGeometry x="1500" y="130" width="150" height="60" as="geometry" />
        </mxCell>
        <mxCell id="1777" value="" style="edgeStyle=none;rounded=1;jumpStyle=none;html=1;shadow=0;labelBackgroundColor=none;startArrow=none;startFill=0;jettySize=auto;orthogonalLoop=1;strokeColor=#12AAB5;strokeWidth=3;fontFamily=Helvetica;fontSize=14;fontColor=#FFFFFF;spacing=5;fontStyle=1;fillColor=#b0e3e6;" parent="1" source="1771" target="1776" edge="1">
          <mxGeometry relative="1" as="geometry" />
        </mxCell>
        <mxCell id="1778" value="PR" style="rounded=1;whiteSpace=wrap;html=1;shadow=0;labelBackgroundColor=none;strokeColor=none;strokeWidth=3;fillColor=#61c6ce;fontFamily=Helvetica;fontSize=14;fontColor=#FFFFFF;align=center;spacing=5;fontStyle=0;arcSize=7;perimeterSpacing=2;" parent="1" vertex="1">
          <mxGeometry x="875" y="244.5" width="150" height="60" as="geometry" />
        </mxCell>
        <mxCell id="1779" value="" style="edgeStyle=none;rounded=1;jumpStyle=none;html=1;shadow=0;labelBackgroundColor=none;startArrow=none;startFill=0;jettySize=auto;orthogonalLoop=1;strokeColor=#12AAB5;strokeWidth=3;fontFamily=Helvetica;fontSize=14;fontColor=#FFFFFF;spacing=5;fontStyle=1;fillColor=#b0e3e6;" parent="1" source="1771" target="1778" edge="1">
          <mxGeometry relative="1" as="geometry" />
        </mxCell>
        <mxCell id="-hZSJfEYsWuoOAUDj7_P-1779" value="&lt;p data-sourcepos=&quot;31:5-31:14&quot;&gt;&lt;strong&gt;X-Ray:&lt;/strong&gt;&lt;/p&gt;&lt;p data-sourcepos=&quot;19:5-19:19&quot;&gt;&lt;br/&gt;&lt;/p&gt;&lt;ul data-sourcepos=&quot;32:5-36:0&quot;&gt;&lt;br/&gt;&lt;li data-sourcepos=&quot;32:5-32:94&quot;&gt;&lt;strong&gt;Resumo:&lt;/strong&gt; Análise de aplicações distribuídas. Ajuda a depurar e otimizar aplicações.&lt;/li&gt;&lt;br/&gt;&lt;li data-sourcepos=&quot;33:5-33:101&quot;&gt;&lt;strong&gt;Casos de Uso:&lt;/strong&gt; Identificar gargalos de desempenho, rastrear requisições, solucionar erros.&lt;/li&gt;&lt;br/&gt;&lt;li data-sourcepos=&quot;34:5-34:126&quot;&gt;&lt;strong&gt;Boas Práticas:&lt;/strong&gt; Instrumentar a aplicação com o X-Ray SDK, usar anotações e metadados, usar Service Map e Analytics.&lt;/li&gt;&lt;br/&gt;&lt;li data-sourcepos=&quot;35:5-36:0&quot;&gt;&lt;strong&gt;Custos:&lt;/strong&gt; Traces gravados: US$ 5,00/1.000.000 traces (após o nível gratuito de 100.000); Traces recuperados/analisados: US$ 0,50/1.000.000 traces (após o nível gratuito de 1.000.000).&lt;/li&gt;&lt;/ul&gt;" style="rounded=1;whiteSpace=wrap;html=1;shadow=0;labelBackgroundColor=none;strokeColor=none;strokeWidth=3;fillColor=#f08e81;fontFamily=Helvetica;fontSize=14;fontColor=#FFFFFF;align=center;spacing=5;fontStyle=0;arcSize=7;perimeterSpacing=2;" vertex="1" parent="1">
          <mxGeometry x="-1270" y="-10" width="580" height="277.75" as="geometry" />
        </mxCell>
        <mxCell id="-hZSJfEYsWuoOAUDj7_P-1782" value="&lt;p data-sourcepos=&quot;37:5-37:24&quot;&gt;&lt;strong&gt;Systems Manager:&lt;/strong&gt;&lt;/p&gt;&lt;ul data-sourcepos=&quot;38:5-42:0&quot;&gt;&lt;li data-sourcepos=&quot;38:5-38:123&quot;&gt;&lt;strong&gt;Resumo:&lt;/strong&gt; Gerenciamento unificado de operações. Automatiza tarefas, gerencia configurações e mantém conformidade.&lt;/li&gt;&lt;br&gt;&lt;li data-sourcepos=&quot;39:5-39:139&quot;&gt;&lt;strong&gt;Casos de Uso:&lt;/strong&gt; Executar comandos em instâncias, gerenciar patches, armazenar parâmetros, acessar instâncias via Session Manager.&lt;/li&gt;&lt;br&gt;&lt;li data-sourcepos=&quot;40:5-40:176&quot;&gt;&lt;strong&gt;Boas Práticas:&lt;/strong&gt; Usar Run Command, State Manager, Patch Manager, Parameter Store e Session Manager. Utilizar instâncias &lt;em&gt;standard&lt;/em&gt; para aproveitar recursos gratuitos.&lt;/li&gt;&lt;br&gt;&lt;li data-sourcepos=&quot;41:5-42:0&quot;&gt;&lt;strong&gt;Custos:&lt;/strong&gt; Muitos recursos são gratuitos para instâncias EC2. Automation: US$ 0,002/ação, US$ 0,000003333/segundo; Parameter Store (avançados): US$ 0,05/parâmetro/mês, US$ 0,05/10.000 interações de API.&lt;/li&gt;&lt;/ul&gt;" style="rounded=1;whiteSpace=wrap;html=1;shadow=0;labelBackgroundColor=none;strokeColor=none;strokeWidth=3;fillColor=#f08e81;fontFamily=Helvetica;fontSize=14;fontColor=#FFFFFF;align=center;spacing=5;fontStyle=0;arcSize=7;perimeterSpacing=2;" vertex="1" parent="1">
          <mxGeometry x="-1270" y="306.75" width="580" height="323.25" as="geometry" />
        </mxCell>
        <mxCell id="-hZSJfEYsWuoOAUDj7_P-1783" value="" style="edgeStyle=none;rounded=1;jumpStyle=none;html=1;shadow=0;labelBackgroundColor=none;startArrow=none;startFill=0;jettySize=auto;orthogonalLoop=1;strokeColor=#E85642;strokeWidth=3;fontFamily=Helvetica;fontSize=14;fontColor=#FFFFFF;spacing=5;fontStyle=1;fillColor=#b0e3e6;entryX=1;entryY=0.5;entryDx=0;entryDy=0;" edge="1" parent="1" target="-hZSJfEYsWuoOAUDj7_P-1782">
          <mxGeometry relative="1" as="geometry">
            <mxPoint x="223" y="384" as="sourcePoint" />
            <mxPoint x="-18" y="273" as="targetPoint" />
            <Array as="points">
              <mxPoint x="10" y="460" />
            </Array>
          </mxGeometry>
        </mxCell>
        <mxCell id="-hZSJfEYsWuoOAUDj7_P-1784" value="&lt;p data-sourcepos=&quot;43:5-43:17&quot;&gt;&lt;strong&gt;OpsWorks:&lt;/strong&gt;&lt;/p&gt;&lt;ul data-sourcepos=&quot;44:5-48:0&quot;&gt;&lt;li data-sourcepos=&quot;44:5-44:82&quot;&gt;&lt;strong&gt;Resumo:&lt;/strong&gt; Serviço de gerenciamento de configuração usando Chef e Puppet.&lt;/li&gt;&lt;br&gt;&lt;li data-sourcepos=&quot;45:5-45:111&quot;&gt;&lt;strong&gt;Casos de Uso:&lt;/strong&gt; Automatizar implantação e configuração de aplicações, gerenciar servidores em escala.&lt;/li&gt;&lt;br&gt;&lt;li data-sourcepos=&quot;46:5-46:154&quot;&gt;&lt;strong&gt;Boas Práticas:&lt;/strong&gt; Usar receitas (recipes) do Chef ou manifestos (manifests) do Puppet, automatizar a implantação e o gerenciamento de aplicações.&lt;/li&gt;&lt;br&gt;&lt;li data-sourcepos=&quot;47:5-48:0&quot;&gt;&lt;strong&gt;Custos:&lt;/strong&gt; Sem custo adicional (paga pelos recursos criados).&lt;/li&gt;&lt;/ul&gt;" style="rounded=1;whiteSpace=wrap;html=1;shadow=0;labelBackgroundColor=none;strokeColor=none;strokeWidth=3;fillColor=#f08e81;fontFamily=Helvetica;fontSize=14;fontColor=#FFFFFF;align=center;spacing=5;fontStyle=0;arcSize=7;perimeterSpacing=2;" vertex="1" parent="1">
          <mxGeometry x="-1270" y="670" width="580" height="323.25" as="geometry" />
        </mxCell>
        <mxCell id="-hZSJfEYsWuoOAUDj7_P-1785" value="&lt;p data-sourcepos=&quot;49:5-49:15&quot;&gt;&lt;strong&gt;Config:&lt;/strong&gt;&lt;/p&gt;&lt;ul data-sourcepos=&quot;50:5-54:0&quot;&gt;&lt;li data-sourcepos=&quot;50:5-50:114&quot;&gt;&lt;strong&gt;Resumo:&lt;/strong&gt; Avaliação e auditoria de configurações. Monitora e registra as configurações dos recursos AWS.&lt;/li&gt;&lt;br&gt;&lt;li data-sourcepos=&quot;51:5-51:106&quot;&gt;&lt;strong&gt;Casos de Uso:&lt;/strong&gt; Garantir conformidade, monitorar mudanças de configuração, solucionar problemas.&lt;/li&gt;&lt;br&gt;&lt;li data-sourcepos=&quot;52:5-52:125&quot;&gt;&lt;strong&gt;Boas Práticas:&lt;/strong&gt; Usar regras gerenciadas ou customizadas, integrar com CloudWatch Events, usar Remediation Actions.&lt;/li&gt;&lt;br&gt;&lt;li data-sourcepos=&quot;53:5-54:0&quot;&gt;&lt;strong&gt;Custos:&lt;/strong&gt; Regras: US$ 2,00/regra ativa/mês; Avaliações de Conformidade: US$ 0,001/avaliação (para as primeiras 500.000); Itens de Configuração: US$ 0,003/item registrado.&lt;/li&gt;&lt;/ul&gt;" style="rounded=1;whiteSpace=wrap;html=1;shadow=0;labelBackgroundColor=none;strokeColor=none;strokeWidth=3;fillColor=#f08e81;fontFamily=Helvetica;fontSize=14;fontColor=#FFFFFF;align=center;spacing=5;fontStyle=0;arcSize=7;perimeterSpacing=2;" vertex="1" parent="1">
          <mxGeometry x="-610" y="360" width="580" height="323.25" as="geometry" />
        </mxCell>
        <UserObject label="&lt;p data-sourcepos=&quot;55:5-55:56&quot;&gt;&lt;strong&gt;CodeCommit, CodeBuild, CodeDeploy, CodePipeline:&lt;/strong&gt;&lt;/p&gt;&#xa;&lt;ul data-sourcepos=&quot;56:5-59:301&quot;&gt;&#xa;&lt;li data-sourcepos=&quot;56:5-56:81&quot;&gt;&lt;strong&gt;Resumo:&lt;/strong&gt; Serviços para CI/CD (Integração Contínua e Entrega Contínua).&lt;/li&gt;&#xa;&lt;li data-sourcepos=&quot;57:5-57:102&quot;&gt;&lt;strong&gt;Casos de Uso:&lt;/strong&gt; Automatizar o processo de desenvolvimento, desde o commit até a implantação.&lt;/li&gt;&#xa;&lt;li data-sourcepos=&quot;58:5-58:198&quot;&gt;&lt;strong&gt;Boas Práticas:&lt;/strong&gt; Usar CodeCommit para controle de versão, CodeBuild para builds e testes, CodeDeploy para implantação, CodePipeline para orquestrar o processo. Usar Infrastructure as Code.&lt;/li&gt;&#xa;&lt;li data-sourcepos=&quot;59:5-59:301&quot;&gt;&lt;strong&gt;Custos:&lt;/strong&gt; CodeCommit: US$ 1,00/usuário ativo/mês (após o nível gratuito de 5); CodeBuild: US$ 0,005/minuto (build.general1.small); CodeDeploy: Sem custo adicional para EC2, US$ 0,02/atualização de instância on-premises; CodePipeline: US$ 1,00/pipeline ativo/mês (após o nível gratuito de 1).&lt;/li&gt;&lt;/ul&gt;" link="&lt;p data-sourcepos=&quot;55:5-55:56&quot;&gt;&lt;strong&gt;CodeCommit, CodeBuild, CodeDeploy, CodePipeline:&lt;/strong&gt;&lt;/p&gt;&#xa;&lt;ul data-sourcepos=&quot;56:5-59:301&quot;&gt;&#xa;&lt;li data-sourcepos=&quot;56:5-56:81&quot;&gt;&lt;strong&gt;Resumo:&lt;/strong&gt; Serviços para CI/CD (Integração Contínua e Entrega Contínua).&lt;/li&gt;&#xa;&lt;li data-sourcepos=&quot;57:5-57:102&quot;&gt;&lt;strong&gt;Casos de Uso:&lt;/strong&gt; Automatizar o processo de desenvolvimento, desde o commit até a implantação.&lt;/li&gt;&#xa;&lt;li data-sourcepos=&quot;58:5-58:198&quot;&gt;&lt;strong&gt;Boas Práticas:&lt;/strong&gt; Usar CodeCommit para controle de versão, CodeBuild para builds e testes, CodeDeploy para implantação, CodePipeline para orquestrar o processo. Usar Infrastructure as Code.&lt;/li&gt;&#xa;&lt;li data-sourcepos=&quot;59:5-59:301&quot;&gt;&lt;strong&gt;Custos:&lt;/strong&gt; CodeCommit: US$ 1,00/usuário ativo/mês (após o nível gratuito de 5); CodeBuild: US$ 0,005/minuto (build.general1.small); CodeDeploy: Sem custo adicional para EC2, US$ 0,02/atualização de instância on-premises; CodePipeline: US$ 1,00/pipeline ativo/mês (após o nível gratuito de 1).&lt;/li&gt;&lt;/ul&gt;" id="-hZSJfEYsWuoOAUDj7_P-1787">
          <mxCell style="rounded=1;whiteSpace=wrap;html=1;shadow=0;labelBackgroundColor=none;strokeColor=none;strokeWidth=3;fillColor=#f08e81;fontFamily=Helvetica;fontSize=14;fontColor=#FFFFFF;align=center;spacing=5;fontStyle=0;arcSize=7;perimeterSpacing=2;" vertex="1" parent="1">
            <mxGeometry x="-630" y="750" width="580" height="323.25" as="geometry" />
          </mxCell>
        </UserObject>
        <mxCell id="-hZSJfEYsWuoOAUDj7_P-1789" style="edgeStyle=none;curved=1;rounded=0;orthogonalLoop=1;jettySize=auto;html=1;entryX=0.997;entryY=0.432;entryDx=0;entryDy=0;entryPerimeter=0;fontSize=12;startSize=8;endSize=8;strokeWidth=3;fillColor=#fa6800;strokeColor=#C73500;" edge="1" parent="1" source="1753" target="-hZSJfEYsWuoOAUDj7_P-1785">
          <mxGeometry relative="1" as="geometry" />
        </mxCell>
      </root>
    </mxGraphModel>
  </diagram>
</mxfile>
